<svg width="284" height="312" viewBox="0 0 284 312" fill="none" xmlns="http://www.w3.org/2000/svg">
<path d="M10.3582 2C10.1896 10.6032 8.01281 18.4189 6.1791 26.7763C3.18175 40.4371 2 54.3 2 68.2765C2 99.0664 12.6291 122.312 38.9928 139.895C56.6116 151.647 82.4254 158.668 101.989 147.251C104.543 145.76 113.736 137.195 107.871 134.088C95.2917 127.426 88.3682 140.954 88.3682 152.593C88.3682 172.269 96.5306 184.608 114.217 194.79C125.31 201.177 139.324 201.294 151.751 201.294C166.503 201.294 175.165 197.746 187.428 189.371C198.593 181.745 210.955 169.567 210.955 155.303C210.955 150.852 201.313 152.064 197.876 152.593C185.123 154.556 180.308 170.049 180.308 180.699C180.308 194.735 178.265 209.973 184.565 222.973C193.165 240.719 200.742 257.482 216.527 270.203C232.705 283.241 250.023 292.507 269.153 300.244C273.26 301.905 282 304.495 282 310" stroke="#721111" stroke-width="4" stroke-linecap="round" stroke-linejoin="round"/>
</svg>
