<svg width="274" height="313" viewBox="0 0 274 313" fill="none" xmlns="http://www.w3.org/2000/svg">
<path d="M0 310.334C21.3612 310.334 49.6974 315.541 64.8215 296.838C79.241 279.006 90.3083 262.4 96.5027 240.362C97.8849 235.444 99.9008 221.115 95.669 216.899C92.932 214.173 83.684 213.422 82.1211 217.315C75.4435 233.945 81.0132 241.192 100.254 241.192C123.449 241.192 138.046 237.549 150.486 216.069C166.714 188.048 171.543 151.903 174.038 120.143C174.696 111.776 179.748 84.0672 171.641 77.7858C167.109 74.2744 153.19 76.302 149.131 79.4468C142.983 84.2106 137.898 100.4 144.441 107.685C164.776 130.325 192.733 111.027 210.305 95.9536C228.111 80.679 244.146 57.3177 256.576 37.5051C263.217 26.9207 268.052 13.7977 272 2" stroke="#721111" stroke-width="4" stroke-linecap="round" stroke-linejoin="round"/>
</svg>
