<svg width="200" height="139" viewBox="0 0 200 139" fill="none" xmlns="http://www.w3.org/2000/svg">
<path d="M0 50C0 22.3858 22.3858 0 50 0H150C177.614 0 200 22.3858 200 50V139H0V50Z" fill="#DEA34B"/>
<path d="M44.0703 23.4844H48.2656L52.9766 52.6406L62.4453 23.4844H66.7812L76.9297 52.6406L82.25 23.4844H86.2578L79.9531 57H74.0469L64.5781 28.9219L55.4141 57H49.5781L44.0703 23.4844ZM94.1094 44.6016C94.1094 50.5234 96.5703 53.4844 101.492 53.4844C106.414 53.4844 108.875 50.5234 108.875 44.6016C108.875 38.8047 106.414 35.9062 101.492 35.9062C96.5703 35.9062 94.1094 38.8047 94.1094 44.6016ZM89.7734 44.6953C89.7734 36.4922 93.6797 32.3906 101.492 32.3906C109.305 32.3906 113.211 36.4922 113.211 44.6953C113.211 52.8828 109.305 56.9766 101.492 56.9766C93.7109 56.9766 89.8047 52.8828 89.7734 44.6953ZM119.07 57V32.3906H122L122.773 35.5312C124.93 33.4375 127.523 32.3906 130.555 32.3906V36C127.617 36 125.234 37.0391 123.406 39.1172V57H119.07ZM134.914 57V23.4844H139.25V34.3125C141.641 33.0312 144.398 32.3906 147.523 32.3906C153.648 32.3906 156.711 34.7578 156.711 39.4922C156.711 42.9297 154.367 45.3047 149.68 46.6172L157.555 57H152.07L144.242 46.5703V44.625C149.664 44.1406 152.375 42.4219 152.375 39.4688C152.375 37.0938 150.656 35.9062 147.219 35.9062C144.516 35.9062 141.859 36.6406 139.25 38.1094V57H134.914Z" fill="#FFFDEA"/>
</svg>
